REM DIRINDEX 1\2,1\3,1\4
REM DIRNAME cjc038,folder01,folder02,folder03
TITLE ""
FILE "DISC2Track14.mp3" MP3
  TRACK 01 AUDIO
    TITLE "0:"
    INDEX 01 00:00:00
  TRACK 02 AUDIO
    TITLE "4:cjc038_1369"
    INDEX 01 00:00:07
  TRACK 03 AUDIO
    TITLE "0:"
    INDEX 01 00:02:59
  TRACK 04 AUDIO
    TITLE "2:cjc038_1370"
    INDEX 01 00:04:25
  TRACK 05 AUDIO
    TITLE "0:"
    INDEX 01 00:06:31
  TRACK 06 AUDIO
    TITLE "3:cjc038_1371"
    INDEX 01 00:06:39
  TRACK 07 AUDIO
    TITLE "0:"
    INDEX 01 00:08:34
  TRACK 08 AUDIO
    TITLE "2:cjc038_1372"
    INDEX 01 00:09:14
  TRACK 09 AUDIO
    TITLE "0:"
    INDEX 01 00:12:26
  TRACK 10 AUDIO
    TITLE "3:cjc038_1373"
    INDEX 01 00:12:36
  TRACK 11 AUDIO
    TITLE "0:"
    INDEX 01 00:15:28
  TRACK 12 AUDIO
    TITLE "2:cjc038_1374"
    INDEX 01 00:16:14
  TRACK 13 AUDIO
    TITLE "0:"
    INDEX 01 00:18:29
  TRACK 14 AUDIO
    TITLE "3:cjc038_1375"
    INDEX 01 00:18:39
  TRACK 15 AUDIO
    TITLE "0:"
    INDEX 01 00:20:41
  TRACK 16 AUDIO
    TITLE "2:cjc038_1376"
    INDEX 01 00:21:25
  TRACK 17 AUDIO
    TITLE "0:"
    INDEX 01 00:24:14
  TRACK 18 AUDIO
    TITLE "3:cjc038_1377"
    INDEX 01 00:24:22
  TRACK 19 AUDIO
    TITLE "0:"
    INDEX 01 00:27:04
  TRACK 20 AUDIO
    TITLE "2:cjc038_1378"
    INDEX 01 00:28:53
  TRACK 21 AUDIO
    TITLE "0:"
    INDEX 01 00:32:17
  TRACK 22 AUDIO
    TITLE "3:cjc038_1379"
    INDEX 01 00:32:25
  TRACK 23 AUDIO
    TITLE "0:"
    INDEX 01 00:35:63
  TRACK 24 AUDIO
    TITLE "2:cjc038_1380"
    INDEX 01 00:36:40
  TRACK 25 AUDIO
    TITLE "0:"
    INDEX 01 00:39:43
  TRACK 26 AUDIO
    TITLE "3:cjc038_1381"
    INDEX 01 00:39:58
  TRACK 27 AUDIO
    TITLE "0:"
    INDEX 01 00:42:49
  TRACK 28 AUDIO
    TITLE "2:cjc038_1382"
    INDEX 01 00:43:27
  TRACK 29 AUDIO
    TITLE "0:"
    INDEX 01 00:46:74
  TRACK 30 AUDIO
    TITLE "3:cjc038_1383"
    INDEX 01 00:47:05
  TRACK 31 AUDIO
    TITLE "0:"
    INDEX 01 00:50:46
  TRACK 32 AUDIO
    TITLE "2:cjc038_1384"
    INDEX 01 00:52:28
  TRACK 33 AUDIO
    TITLE "0:"
    INDEX 01 00:56:02
  TRACK 34 AUDIO
    TITLE "3:cjc038_1385"
    INDEX 01 00:56:10
  TRACK 35 AUDIO
    TITLE "0:"
    INDEX 01 00:59:47
  TRACK 36 AUDIO
    TITLE "2:cjc038_1386"
    INDEX 01 01:00:33
  TRACK 37 AUDIO
    TITLE "0:"
    INDEX 01 01:02:73
  TRACK 38 AUDIO
    TITLE "3:cjc038_1387"
    INDEX 01 01:03:12
  TRACK 39 AUDIO
    TITLE "0:"
    INDEX 01 01:05:28
  TRACK 40 AUDIO
    TITLE "2:cjc038_1388"
    INDEX 01 01:06:18
  TRACK 41 AUDIO
    TITLE "0:"
    INDEX 01 01:10:30
  TRACK 42 AUDIO
    TITLE "3:cjc038_1389"
    INDEX 01 01:10:37
  TRACK 43 AUDIO
    TITLE "0:"
    INDEX 01 01:14:35
  TRACK 44 AUDIO
    TITLE "2:cjc038_1390"
    INDEX 01 01:15:23
  TRACK 45 AUDIO
    TITLE "0:"
    INDEX 01 01:19:01
  TRACK 46 AUDIO
    TITLE "3:cjc038_1391"
    INDEX 01 01:19:13
  TRACK 47 AUDIO
    TITLE "0:"
    INDEX 01 01:22:56
  TRACK 48 AUDIO
    TITLE "2:cjc038_1392"
    INDEX 01 01:23:32
  TRACK 49 AUDIO
    TITLE "0:"
    INDEX 01 01:27:26
  TRACK 50 AUDIO
    TITLE "3:cjc038_1393"
    INDEX 01 01:27:38
  TRACK 51 AUDIO
    TITLE "0:"
    INDEX 01 01:31:00
  TRACK 52 AUDIO
    TITLE "2:cjc038_1394"
    INDEX 01 01:31:73
  TRACK 53 AUDIO
    TITLE "0:"
    INDEX 01 01:34:71
  TRACK 54 AUDIO
    TITLE "3:cjc038_1395"
    INDEX 01 01:35:04
  TRACK 55 AUDIO
    TITLE "0:"
    INDEX 01 01:37:56
  TRACK 56 AUDIO
    TITLE "2:cjc038_1396"
    INDEX 01 01:39:43
  TRACK 57 AUDIO
    TITLE "0:"
    INDEX 01 01:43:15
  TRACK 58 AUDIO
    TITLE "3:cjc038_1397"
    INDEX 01 01:43:23
  TRACK 59 AUDIO
    TITLE "0:"
    INDEX 01 01:46:66
  TRACK 60 AUDIO
    TITLE "2:cjc038_1398"
    INDEX 01 01:47:42
  TRACK 61 AUDIO
    TITLE "0:"
    INDEX 01 01:49:53
  TRACK 62 AUDIO
    TITLE "3:cjc038_1399"
    INDEX 01 01:49:63
  TRACK 63 AUDIO
    TITLE "0:"
    INDEX 01 01:51:62
  TRACK 64 AUDIO
    TITLE "2:cjc038_1400"
    INDEX 01 01:52:48
  TRACK 65 AUDIO
    TITLE "0:"
    INDEX 01 01:56:10
  TRACK 66 AUDIO
    TITLE "3:cjc038_1401"
    INDEX 01 01:56:22
  TRACK 67 AUDIO
    TITLE "0:"
    INDEX 01 01:59:55
  TRACK 68 AUDIO
    TITLE "2:cjc038_1402"
    INDEX 01 02:00:27
  TRACK 69 AUDIO
    TITLE "0:"
    INDEX 01 02:03:16
  TRACK 70 AUDIO
    TITLE "3:cjc038_1403"
    INDEX 01 02:03:26
  TRACK 71 AUDIO
    TITLE "0:"
    INDEX 01 02:06:06
